<svg xmlns="http://www.w3.org/2000/svg" viewBox="0 0 64 64">
  <defs>
    <linearGradient id="g" x1="0" y1="0" x2="1" y2="1">
      <stop offset="0" stop-color="#06b6d4"></stop>
      <stop offset="1" stop-color="#3b82f6"></stop>
    </linearGradient>
  </defs>
  <rect width="64" height="64" rx="14" fill="#0b1220"></rect>
  <path d="M10 40c6-10 14-14 24-12 6 1 11 4 16 9 2 2 4 3 6 3 2 0 4-1 6-3v8c-2 2-4 3-6 3-4 0-7-2-10-5-4-4-8-6-12-7-7-1-13 2-18 9z" fill="url(#g)"></path>
  <path d="M12 46c8-6 16-7 24-4 4 2 8 4 12 8 2 2 5 3 8 3v6c-4 0-8-1-11-4-4-4-8-7-12-8-6-2-13-1-21 5z" fill="#22c55e" opacity="0.25"></path>
  <circle cx="46" cy="20" r="6" fill="#38bdf8" opacity="0.9"></circle>
</svg>
